<svg xmlns:cc="http://creativecommons.org/ns#" xmlns:dc="http://purl.org/dc/elements/1.1/" xmlns:rdf="http://www.w3.org/1999/02/22-rdf-syntax-ns#" xmlns:svg="http://www.w3.org/2000/svg" xmlns="http://www.w3.org/2000/svg" xmlns:xlink="http://www.w3.org/1999/xlink" id="svg8" x="0px" y="0px" viewBox="0 0 26.9 50.8" style="enable-background:new 0 0 26.9 50.8;" xml:space="preserve">
<style type="text/css">
	.st0{fill:#FFFFFF;}
	.st1{fill:#1A1A1A;}
</style>
<g id="layer1" transform="translate(-240.19021,-138.42132)">
	<g id="g4801">
		<path id="path4752" class="st0" d="M252.3,139.4l-2.7,3.3c0,0,0,0,0,0c-2.8,3.8-4.2,8.1-4.1,12.4c0,0,0,0,0,0l0.2,6.6l-4.8,4    c0,0,0,0-0.1,0.1c-0.3,0.3-0.4,0.6-0.5,0.9c0,0.2-0.1,0.3-0.1,0.6c0,0.2,0.1,0.6,0.4,0.9l-0.3-0.5l1,6c0,0,0,0.1,0,0.1    c0.2,0.6,0.6,1,1.1,1.2c0.5,0.2,1,0.4,1.6,0.2c0,0,0,0,0.1,0l4.6-1.8l9.8,0.2l4.6,2c0,0,0,0,0.1,0c0.6,0.2,1.2,0.1,1.6-0.1    c0.5-0.2,0.9-0.6,1.1-1.2c0,0,0-0.1,0-0.1l1.2-6c0-0.1,0-0.1,0-0.2c0-0.2,0-0.4,0-0.7c0-0.3-0.1-0.6-0.4-1c0,0,0,0-0.1-0.1    l-4.7-4.2l0.4-6.6c0,0,0,0,0,0c0.3-4.3-1-8.6-3.7-12.6c0,0,0,0,0,0l-2.6-3.4l0.1,0.1c-0.4-0.7-1.1-1.2-1.9-1.2    c-0.8,0-1.5,0.4-2,1.1L252.3,139.4z M252.5,154c0.3-0.3,0.8-0.5,1.5-0.5c1.3,0,2,0.7,1.9,2c0,1.3-0.7,2-2,1.9c-1.3,0-2-0.7-1.9-2    C251.9,154.8,252.1,154.3,252.5,154z M248.5,174.6c-0.2,0.3-0.2,0.5-0.2,0.8c0,0,0,0.2-0.1,0.5c0,0.1,0,0.3,0,0.5    c0,0,0.1,0.1,0.1,0.2c-0.1,7.4,4.3,12.3,4.3,12.3c0.4,0.4,1,0.5,1.4,0.1c0,0,0,0,0.1-0.1c0,0,4.6-4.8,4.7-12.2    c0-0.1,0.1-0.1,0.1-0.2c0-0.2,0-0.4,0-0.5c0-0.3,0-0.5-0.1-0.5c0-0.3,0-0.7-0.4-1.1c-0.2-0.2-0.5-0.4-0.9-0.4    c-0.1,0-0.1,0.1-0.1,0.1l-7.5-0.1l0,0c-0.1,0-0.2-0.1-0.3-0.1C249,173.9,248.6,174.3,248.5,174.6L248.5,174.6z"></path>
		<g id="g2715" transform="rotate(-43.978441,-1899.8398,-3398.3083)">
			<path id="path2696" class="st1" d="M-2806.4,643.2c-0.3-0.3-0.7-0.4-1.2-0.3l-4.2,0.5c-4.5,0.8-8.2,2.7-11,5.7l-4.8,5.2l-6.7-0.5     c-0.2,0-0.7,0.3-0.7,0.5l-3.5,5c-0.2,0.5,0,1.2,0.5,1.5l4.8,2l7.2,7.2l2,4.7c0.2,0.5,1,0.8,1.5,0.5l5-3.5     c0.2-0.2,0.5-0.5,0.5-0.7l-0.5-6.7l5.2-4.8c3-2.8,5-6.5,5.8-11l0.5-4.2C-2806,643.9-2806.1,643.5-2806.4,643.2L-2806.4,643.2z      M-2815.6,652.4c1.2,1.2,1.2,3,0,4.3c-1.2,1.3-3,1.2-4.2,0c-1.2-1.2-1.3-3,0-4.2C-2818.6,651.1-2816.9,651.1-2815.6,652.4     L-2815.6,652.4z M-2834.4,665.5c-0.1-0.1-0.3,0-0.5,0.1c-0.2,0.2-0.8,0.5-0.8,0.7c-5,5-5.2,11.2-5.2,11.2s6.2-0.2,11.2-5.2     c0.2,0,0.5-0.5,0.8-0.8c0.2-0.2,0.2-0.5,0-0.5l-5.5-5.5C-2834.4,665.6-2834.4,665.5-2834.4,665.5L-2834.4,665.5z"></path>
		</g>
	</g>
</g>
</svg>